<?xml version="1.0" standalone="no"?>
<!DOCTYPE svg PUBLIC "-//W3C//DTD SVG 20010904//EN"
 "http://www.w3.org/TR/2001/REC-SVG-20010904/DTD/svg10.dtd">
<svg version="1.0" xmlns="http://www.w3.org/2000/svg"
 width="1813.000000pt" height="829.000000pt" viewBox="0 0 1813.000000 829.000000"
 preserveAspectRatio="xMidYMid meet">
<metadata>
Created by potrace 1.15, written by Peter Selinger 2001-2017
</metadata>
<g transform="translate(0.000000,829.000000) scale(0.100000,-0.100000)"
fill="#000000" stroke="none">
<path d="M2181 6153 c1071 -1072 1952 -1958 1959 -1971 29 -59 104 18 -1953
-2039 l-1952 -1953 3655 0 c3181 0 3652 2 3634 14 -11 8 -41 26 -65 39 -48 27
-190 109 -284 164 -33 20 -105 62 -160 93 -55 32 -138 80 -185 107 -115 67
-136 79 -253 147 -56 32 -127 73 -157 91 -30 18 -75 43 -100 56 -25 13 -52 29
-60 35 -16 13 -191 114 -196 114 -10 0 -112 71 -131 91 -48 53 -48 49 -51 664
l-3 580 -32 22 c-62 41 -323 210 -385 249 -34 21 -111 71 -170 109 -139 91
-244 159 -257 165 -40 20 -134 94 -155 121 l-25 34 -3 1075 c-2 719 0 1087 7
1110 22 75 58 99 471 312 91 47 219 114 285 148 66 35 152 80 190 100 l70 37
5 634 c6 702 2 662 72 718 42 35 203 134 288 179 36 18 72 40 80 47 8 7 36 24
62 38 27 14 67 37 90 52 24 15 115 69 203 120 88 52 185 110 216 129 30 20 59
36 63 36 4 0 33 17 66 38 32 20 80 49 107 64 26 16 55 32 63 38 8 5 62 37 120
71 58 34 107 63 109 65 2 2 -1613 4 -3590 4 l-3594 0 1946 -1947z"/>
<path d="M7955 8089 c-115 -63 -226 -127 -252 -146 -17 -13 -34 -23 -37 -23
-3 0 -45 -23 -93 -51 -48 -29 -112 -65 -140 -80 -29 -16 -77 -45 -108 -64
l-55 -36 0 -578 c0 -480 -2 -580 -14 -590 -9 -8 -64 -11 -172 -9 l-159 3 -3
473 c-3 544 8 502 -107 432 -36 -22 -67 -40 -69 -40 -3 0 -142 -84 -203 -123
-24 -15 -46 -27 -50 -27 -5 0 -35 -18 -68 -40 -33 -22 -64 -40 -68 -40 -16 0
-122 -81 -129 -98 -8 -22 -10 -1029 -2 -1071 5 -26 19 -39 73 -70 86 -50 222
-126 291 -164 121 -65 326 -180 335 -187 29 -23 151 -80 171 -80 13 0 65 24
116 53 51 30 136 76 188 102 52 27 118 63 145 81 28 17 82 48 120 68 39 20
117 62 175 94 l105 57 3 614 c1 440 5 618 14 628 8 11 45 13 172 11 l161 -3 3
-680 c2 -596 0 -685 -14 -727 -22 -67 -62 -97 -304 -225 -58 -31 -107 -59
-110 -63 -3 -3 -57 -33 -120 -65 -63 -32 -126 -66 -140 -75 -14 -10 -66 -39
-115 -65 -50 -26 -101 -55 -115 -65 -14 -10 -44 -27 -67 -39 l-43 -21 0 -389
c0 -429 -5 -398 65 -433 466 -232 875 -444 898 -465 16 -15 38 -46 48 -68 17
-37 19 -74 19 -513 0 -418 2 -473 16 -479 15 -6 80 26 226 108 133 76 180 103
264 149 157 88 183 105 188 125 8 29 5 1015 -3 1044 -7 26 -40 47 -301 195
-80 46 -192 110 -250 143 -58 34 -125 72 -150 86 -27 15 -46 33 -48 46 -5 34
134 281 158 281 8 0 33 -11 55 -23 22 -13 85 -50 140 -82 55 -32 128 -73 161
-92 34 -18 93 -51 130 -73 74 -43 99 -49 108 -24 3 9 6 676 6 1482 -1 1137 -3
1471 -13 1483 -12 15 -90 65 -402 252 -82 50 -168 102 -190 117 -98 66 -112
70 -272 70 -87 0 -156 -5 -168 -11z"/>
<path d="M8870 8065 c30 -19 73 -44 95 -56 22 -12 54 -32 71 -45 17 -13 34
-24 37 -24 14 0 175 -106 208 -137 20 -19 41 -51 48 -72 16 -56 16 -7067 -1
-7122 -7 -25 -28 -55 -58 -82 -43 -38 -127 -96 -154 -106 -19 -7 -220 -123
-251 -145 -16 -11 -57 -35 -90 -53 l-60 -33 593 0 c325 0 592 1 592 3 0 3 -49
136 -83 227 -13 35 -30 66 -36 68 -6 2 -63 -4 -127 -13 -90 -13 -118 -14 -130
-5 -11 10 -14 44 -14 164 0 83 4 157 9 165 6 10 43 17 117 22 59 5 115 11 124
14 9 3 49 9 90 15 90 11 138 0 179 -42 32 -33 41 -49 74 -138 14 -36 42 -110
63 -165 21 -55 46 -120 54 -145 22 -61 42 -61 165 -7 55 25 147 66 205 91 58
26 119 53 135 61 26 13 197 89 559 251 59 27 110 54 113 60 2 7 -7 30 -21 53
-14 22 -26 43 -26 45 0 3 -25 52 -56 108 -135 245 -144 268 -138 328 6 52 10
59 83 130 42 42 120 110 174 153 53 43 123 111 154 150 32 40 98 119 148 177
49 58 97 114 107 125 97 119 203 238 222 250 33 22 116 30 162 16 43 -13 101
-37 239 -99 50 -22 101 -44 115 -47 14 -4 41 -16 61 -26 35 -17 37 -17 51 -1
12 15 42 85 93 222 31 83 68 178 86 220 10 25 32 81 48 125 16 44 43 116 61
160 17 44 46 121 65 170 18 50 47 126 64 169 21 55 27 83 20 92 -9 11 -41 22
-234 80 -243 73 -268 84 -305 132 -35 45 -35 46 -35 151 0 58 6 205 13 326 15
239 18 181 -48 749 -12 105 17 173 90 215 38 21 78 37 345 132 132 48 141 54
121 95 -8 16 -47 101 -86 189 -39 88 -89 198 -110 245 -113 250 -264 590 -277
622 -8 20 -22 39 -30 42 -15 6 -182 -74 -383 -182 -77 -42 -91 -46 -152 -46
-81 0 -71 -8 -235 186 -112 132 -152 170 -396 374 -327 273 -362 306 -383 361
-21 54 -9 109 56 247 135 289 145 313 130 331 -7 8 -26 19 -44 24 -17 5 -62
22 -101 36 -38 15 -95 36 -125 48 -30 11 -64 26 -75 33 -11 8 -26 14 -34 14
-14 0 -115 37 -178 66 -17 8 -36 14 -42 14 -6 0 -34 11 -63 25 -48 22 -237 95
-421 162 -37 14 -73 23 -80 20 -14 -5 -31 -56 -119 -341 -68 -221 -116 -259
-296 -235 -48 6 -93 13 -100 15 -10 3 -12 40 -10 160 3 169 0 158 58 184 15 7
25 32 80 203 l28 87 -427 0 -426 0 55 -35z m783 -2105 c135 -33 176 -46 233
-72 22 -10 44 -18 48 -18 14 0 161 -73 214 -107 29 -18 55 -33 58 -33 3 0 39
-26 81 -57 42 -32 89 -68 106 -80 41 -30 172 -159 229 -226 364 -425 514
-1007 402 -1567 -19 -93 -71 -258 -118 -367 -132 -316 -393 -619 -698 -810
-99 -63 -277 -149 -381 -184 -131 -45 -293 -79 -306 -66 -16 16 -15 311 2 325
6 5 32 15 57 22 75 20 283 92 315 110 17 9 57 32 90 50 90 50 103 59 190 131
228 189 409 449 478 689 70 244 70 242 71 460 1 230 -8 292 -71 485 -74 228
-186 408 -368 591 -163 165 -305 259 -502 333 -109 40 -178 61 -205 61 -13 0
-34 7 -46 16 -21 14 -22 21 -22 168 0 105 4 156 12 164 7 7 12 12 13 12 0 0
53 -13 118 -30z"/>
<path d="M10880 8096 c0 -4 71 -32 325 -126 77 -29 167 -62 200 -75 33 -13 74
-28 91 -35 44 -16 100 -74 108 -111 15 -75 3 -120 -70 -277 -24 -51 -44 -96
-44 -98 0 -3 -22 -52 -50 -109 -27 -57 -50 -113 -50 -123 0 -12 54 -70 138
-148 75 -71 177 -167 226 -214 48 -47 94 -89 100 -95 6 -5 58 -53 115 -105
l104 -94 96 50 c53 27 159 82 237 122 200 104 279 107 351 15 23 -30 163 -311
163 -328 0 -2 21 -48 46 -102 25 -54 54 -116 64 -138 10 -22 48 -104 84 -182
36 -79 66 -145 66 -148 0 -5 99 -223 147 -325 25 -53 58 -125 90 -200 8 -19
21 -46 28 -60 7 -14 18 -48 25 -77 10 -46 9 -56 -8 -96 -11 -24 -35 -56 -54
-70 -18 -14 -128 -62 -243 -107 -250 -96 -291 -114 -298 -133 -3 -8 1 -61 10
-118 12 -84 14 -168 9 -434 -4 -181 -3 -343 2 -359 10 -36 7 -35 172 -86 74
-23 153 -48 175 -56 22 -7 72 -23 112 -34 40 -11 86 -32 103 -46 l30 -26 0
-134 c0 -101 -4 -142 -16 -171 -9 -21 -20 -47 -24 -58 -4 -11 -31 -83 -60
-160 -28 -77 -60 -160 -70 -185 -10 -25 -28 -74 -41 -110 -12 -36 -25 -69 -29
-75 -4 -5 -17 -37 -28 -70 -11 -33 -40 -112 -65 -175 -24 -63 -74 -196 -111
-295 -104 -278 -129 -325 -198 -361 -61 -32 -119 -16 -368 103 -63 30 -140 64
-170 75 -30 11 -61 25 -68 31 -21 17 -56 -9 -149 -112 -47 -53 -180 -193 -294
-313 -233 -243 -248 -261 -232 -288 7 -9 37 -66 69 -126 82 -157 123 -234 150
-279 32 -56 41 -141 20 -187 -24 -51 -72 -91 -146 -122 -36 -15 -83 -36 -105
-46 -22 -10 -123 -55 -225 -100 -102 -45 -212 -94 -245 -109 -33 -15 -91 -41
-128 -57 l-68 -29 1598 -3 1598 -2 1972 1972 c1085 1085 1973 1977 1973 1983
0 6 -888 898 -1973 1983 l-1972 1972 -1598 0 c-878 0 -1597 -2 -1597 -4z"/>
<path d="M5975 5529 c-54 -27 -194 -101 -375 -197 -36 -19 -140 -72 -232 -118
l-166 -83 -7 -53 c-10 -85 -2 -576 10 -587 11 -11 47 8 226 115 31 18 87 50
125 70 38 21 97 55 132 76 34 21 64 38 67 38 2 0 32 18 66 40 79 51 96 56 120
34 10 -9 19 -21 19 -25 0 -5 18 -38 40 -73 58 -95 92 -165 85 -176 -9 -15
-106 -75 -177 -111 -35 -17 -70 -37 -78 -44 -8 -7 -44 -28 -80 -47 -80 -43
-152 -84 -468 -267 -46 -27 -77 -52 -83 -67 -10 -28 -11 -745 -1 -782 7 -23
64 -67 192 -148 41 -26 77 -51 80 -54 5 -6 106 -74 141 -95 9 -5 43 -28 75
-50 32 -22 66 -44 75 -50 9 -5 76 -49 147 -97 72 -49 137 -91 145 -94 9 -3 40
10 71 30 31 20 84 50 118 67 35 17 74 40 88 49 14 10 61 37 105 60 44 23 105
57 135 75 54 32 182 104 270 153 25 14 62 36 82 49 21 12 44 23 51 23 20 0
177 -244 177 -274 0 -8 -33 -33 -72 -55 -40 -22 -102 -58 -138 -78 -36 -21
-97 -55 -135 -77 -39 -21 -107 -60 -151 -87 -45 -27 -84 -49 -87 -49 -4 0 -39
-20 -79 -44 -40 -24 -111 -65 -158 -93 -47 -27 -90 -60 -97 -73 -18 -36 -18
-964 0 -999 11 -21 136 -100 307 -193 30 -17 66 -38 80 -46 102 -64 386 -222
399 -222 9 0 33 11 53 25 20 14 39 25 42 25 3 0 63 35 133 78 361 222 880 527
896 527 13 0 36 -29 74 -95 85 -146 94 -166 87 -184 -4 -9 -30 -29 -58 -43
-28 -14 -65 -36 -82 -49 -17 -13 -35 -24 -40 -24 -5 0 -29 -14 -54 -31 -25
-16 -70 -43 -100 -60 -30 -16 -106 -60 -168 -99 -63 -38 -115 -70 -117 -70 -4
0 -266 -157 -293 -175 -15 -11 -20 -21 -14 -31 4 -8 71 -49 147 -93 151 -84
278 -157 420 -241 169 -100 183 -106 202 -94 10 6 41 23 68 38 28 16 75 43
105 61 30 18 116 68 190 110 74 43 173 100 220 128 47 28 114 66 150 86 36 20
77 44 90 54 l25 17 3 1001 c1 695 -1 1006 -8 1020 -11 19 -13 19 -73 -14 -34
-18 -84 -47 -112 -64 -27 -17 -117 -70 -200 -118 -82 -49 -178 -106 -212 -127
-34 -21 -65 -38 -69 -38 -3 0 -29 -15 -57 -33 -52 -34 -345 -208 -467 -278
-36 -21 -78 -47 -95 -58 -16 -11 -52 -32 -80 -47 -27 -15 -106 -60 -175 -102
-166 -99 -228 -136 -270 -160 -19 -10 -58 -34 -86 -51 -31 -19 -57 -29 -67
-25 -18 7 -157 252 -157 276 0 9 52 45 118 83 64 37 142 82 172 100 30 18 75
43 100 57 77 43 245 140 255 148 6 4 46 27 90 50 44 23 87 48 95 54 8 7 50 32
94 55 43 24 96 54 117 68 l39 26 -2 496 -3 496 -181 90 c-100 50 -228 112
-285 139 -57 27 -162 78 -232 113 -71 35 -141 63 -156 63 -16 0 -73 -27 -132
-61 -120 -71 -175 -103 -317 -185 -56 -32 -140 -81 -185 -108 -45 -26 -89 -51
-97 -54 -8 -3 -49 -26 -90 -51 -41 -26 -91 -54 -112 -63 -34 -16 -37 -16 -50
0 -32 37 -149 246 -146 261 4 18 128 93 478 286 102 57 184 103 383 219 l97
58 -2 406 -3 406 -105 59 c-58 32 -143 79 -190 104 -47 25 -89 49 -95 53 -10
8 -199 114 -330 185 -38 21 -79 44 -90 51 -30 21 -64 16 -130 -17z"/>
</g>
</svg>
